<?xml version="1.0" standalone="no"?>
<!DOCTYPE svg PUBLIC "-//W3C//DTD SVG 20010904//EN"
 "http://www.w3.org/TR/2001/REC-SVG-20010904/DTD/svg10.dtd">
<svg version="1.0" xmlns="http://www.w3.org/2000/svg"
 width="170.000000pt" height="170.000000pt" viewBox="0 0 170.000000 170.000000"
 preserveAspectRatio="xMidYMid meet">
<metadata>
Created by potrace 1.16, written by Peter Selinger 2001-2019
</metadata>
<g transform="translate(0.000000,170.000000) scale(0.100000,-0.100000)"
fill="#000000" stroke="none">
<path d="M735 1490 c-28 -7 -29 -8 -5 -10 17 -1 6 -6 -30 -15 -67 -17 -69 -17
-50 -4 34 24 -48 -3 -130 -43 -67 -32 -102 -58 -166 -122 -114 -114 -177 -241
-192 -389 -26 -261 33 -451 189 -606 142 -142 294 -197 532 -194 120 2 197 21
307 75 170 83 309 268 344 457 17 87 14 272 -4 346 -43 170 -154 320 -305 413
-56 34 -220 92 -256 91 -13 0 2 -7 34 -15 32 -8 66 -19 75 -25 15 -9 14 -10
-3 -4 -67 21 -151 35 -230 37 l-90 2 95 6 95 6 -90 1 c-49 0 -103 -3 -120 -7z
m330 -512 c-2 -24 -8 -56 -13 -73 -4 -16 -6 -38 -4 -48 3 -15 9 -13 42 17 49
44 143 93 148 77 2 -6 16 -11 30 -11 l27 0 -27 -24 c-16 -13 -28 -28 -28 -35
0 -6 -8 -11 -17 -11 -15 0 -16 -2 -3 -10 13 -9 13 -11 0 -20 -8 -5 -20 -10
-26 -10 -7 0 -14 -7 -18 -15 -3 -8 -14 -15 -25 -15 -26 0 -34 -15 -16 -30 8
-7 15 -18 15 -25 0 -14 -27 -28 -40 -20 -4 3 -6 -3 -3 -13 2 -10 -3 -25 -13
-33 -16 -13 -17 -12 -10 5 7 19 6 19 -14 1 -11 -10 -23 -15 -28 -10 -4 4 -2
10 5 12 13 5 6 33 -8 33 -4 0 -6 -6 -3 -13 6 -18 -22 -42 -31 -27 -3 5 -1 10
5 10 6 0 8 5 5 10 -4 6 -14 1 -24 -11 -12 -15 -20 -19 -25 -11 -4 7 -2 12 4
12 8 0 10 13 6 43 -23 149 -17 193 35 252 43 49 60 46 54 -7z m-545 -133 l34
-95 34 95 c31 85 37 95 59 95 20 0 24 -4 18 -17 -4 -10 -25 -69 -47 -130 -40
-112 -41 -113 -73 -113 -32 0 -32 1 -75 118 -24 64 -45 123 -48 130 -3 8 7 12
29 12 34 0 34 -1 69 -95z m240 -10 c0 -96 2 -105 21 -116 16 -8 28 -8 45 0 23
10 24 15 24 116 l0 105 31 0 31 0 -4 -111 c-3 -107 -4 -112 -31 -135 -33 -28
-92 -32 -137 -9 -37 19 -50 64 -50 173 l0 82 35 0 35 0 0 -105z"/>
</g>
</svg>
